UNKNOWN				-1.55	-0.95	1.25	0.95
version=1							
nRows=101							
nColumns=4							
inDegrees=no							
endheader							
time	time	knee_angle_r_moment	knee_angle_l_moment				
0	0.95	-1.61211042	3.66041559				
1	0.9625	-1.07331612	-0.34813149				
2	0.975	-0.51237062	-3.97026579				
3	0.9875	0.09006892	-6.86798554				
4	1	0.74741236	-8.8379171				
5	1.0125	1.46192607	-9.82735454				
6	1.025	2.22129822	-9.91708051				
7	1.0375	2.99849633	-9.28377913				
8	1.05	3.68867237	-8.15364705				
9	1.0625	4.12694762	-6.76297921				
10	1.075	4.30660328	-5.34224909				
11	1.0875	4.21330187	-3.98922725				
12	1.1	4.3373134	-2.78514319				
13	1.1125	4.59267823	-1.77827909				
14	1.125	4.89948733	-0.9937316				
15	1.1375	5.24832061	-0.4368596				
16	1.15	5.62332198	-0.09333307				
17	1.1625	5.91118525	0.06967286				
18	1.175	6.13654355	0.09855007				
19	1.1875	6.36174913	0.04522195				
20	1.2	6.53899312	-0.04135958				
21	1.2125	6.62308386	-0.12171124				
22	1.225	6.58429179	-0.16912927				
23	1.2375	6.41479762	-0.16977782				
24	1.25	6.12763227	-0.12048188				
25	1.2625	5.7497698	-0.02580392				
26	1.275	5.31231795	0.10352899				
27	1.2875	4.84140689	0.24208317				
28	1.3	4.35052974	0.39044354				
29	1.3125	3.83713612	0.53097732				
30	1.325	3.2823624	0.64581841				
31	1.3375	2.65464953	0.71974808				
32	1.35	1.91628488	0.7425904				
33	1.3625	1.0314691	0.7103048				
34	1.375	-0.02600819	0.62458035				
35	1.3875	-1.26772474	0.49156566				
36	1.4	-2.82017014	0.32041654				
37	1.4125	-4.6550783	0.12218979				
38	1.425	-6.64849264	-0.09033497				
39	1.4375	-8.70200745	-0.30183627				
40	1.45	-10.68517518	-0.49314564				
41	1.4625	-11.9981131	-0.64007963				
42	1.475	-13.19885321	-0.71331157				
43	1.4875	-14.50471469	-0.68022692				
44	1.5	-15.91831031	-0.5089889				
45	1.5125	-16.89218462	-0.17422238				
46	1.525	-17.24842492	0.33699412				
47	1.5375	-16.95988194	1.02071787				
48	1.55	-16.06832921	1.85495094				
49	1.5625	-14.67234405	2.80224748				
50	1.575	-12.91013079	3.81535985				
51	1.5875	-10.94198248	4.83740339				
52	1.6	-8.93299447	5.6606081				
53	1.6125	-7.03487651	6.2729293				
54	1.625	-5.39281554	6.63511167				
55	1.6375	-4.11542359	6.88536363				
56	1.65	-3.11763441	7.40153615				
57	1.6625	-2.3613525	7.8902621				
58	1.675	-1.81056087	8.33641015				
59	1.6875	-1.43507999	8.70976294				
60	1.7	-1.20553327	8.98670446				
61	1.7125	-1.087688	9.07816584				
62	1.725	-1.04148411	9.06288588				
63	1.7375	-1.02516379	8.95250184				
64	1.75	-1.00187472	8.70451604				
65	1.7625	-0.94533608	8.28455781				
66	1.775	-0.84207479	7.67941047				
67	1.7875	-0.68981917	6.90266545				
68	1.8	-0.49344525	5.99201321				
69	1.8125	-0.26059938	4.99997213				
70	1.825	-0.01072445	3.9814054				
71	1.8375	0.23627718	2.9812177				
72	1.85	0.50910376	2.02462702				
73	1.8625	0.79689637	1.11147447				
74	1.875	1.08048117	0.21560417				
75	1.8875	1.33477903	-0.74080331				
76	1.9	1.5324445	-1.91566605				
77	1.9125	1.64773719	-3.26577866				
78	1.925	1.66053031	-4.78678326				
79	1.9375	1.56014146	-6.43208311				
80	1.95	1.34821416	-8.13388662				
81	1.9625	1.04018171	-9.47494313				
82	1.975	0.66507826	-10.87881186				
83	1.9875	0.26353557	-12.48267797				
84	2	-0.11583423	-14.25580725				
85	2.0125	-0.42141115	-15.95418651				
86	2.025	-0.60492032	-17.2771122				
87	2.0375	-0.62884872	-18.10774181				
88	2.05	-0.47386261	-18.36993214				
89	2.0625	-0.14494548	-18.04179022				
90	2.075	0.32479916	-17.15543601				
91	2.0875	0.87348672	-15.7863155				
92	2.1	1.41355532	-14.03869525				
93	2.1125	1.83920996	-12.03128972				
94	2.125	2.03869618	-9.88293211				
95	2.1375	1.91136667	-7.69746905				
96	2.15	1.31196352	-5.54983163				
97	2.1625	0.20026131	-3.47785559				
98	2.175	-1.3241044	-1.54641308				
99	2.1875	-3.10520146	0.32206827				
100	2.2	-4.84432671	2.18872328				
